<?xml version="1.0" encoding="UTF-8" standalone="no"?><!DOCTYPE svg PUBLIC "-//W3C//DTD SVG 1.1//EN" "http://www.w3.org/Graphics/SVG/1.1/DTD/svg11.dtd"><svg width="100%" height="100%" viewBox="0 0 1920 1021" version="1.1" xmlns="http://www.w3.org/2000/svg" xmlns:xlink="http://www.w3.org/1999/xlink" xml:space="preserve" xmlns:serif="http://www.serif.com/" style="fill-rule:evenodd;clip-rule:evenodd;stroke-linecap:round;stroke-linejoin:round;stroke-miterlimit:1.5;"><rect id="Artboard-5" serif:id="Artboard 5" x="0" y="0.418" width="1920" height="1020" style="fill:none;"/><clipPath id="_clip1"><rect x="0" y="0.418" width="1920" height="1020"/></clipPath><g clip-path="url(#_clip1)"><g id="dividers"><path d="M1295,0.418c-0.184,0.635 0,1020 0,1020" style="fill:none;stroke:#d4d4d4;stroke-width:2.5px;stroke-dasharray:2.5,10,0,0;"/><path d="M625.082,0.418c-0.184,0.635 0,1020 0,1020" style="fill:none;stroke:#d4d4d4;stroke-width:2.5px;stroke-dasharray:2.5,10,0,0;"/><path d="M1920,510.459c-0.635,-0.184 -1920,0 -1920,0" style="fill:none;stroke:#d4d4d4;stroke-width:2.5px;stroke-dasharray:2.5,10,0,0;"/></g><text x="288.594px" y="43.751px" style="font-family:'Roboto-Light', 'Roboto';font-weight:300;font-size:20px;fill:#919191;">Icon</text><text x="0px" y="39.418px" style="font-family:'Roboto-Light', 'Roboto';font-weight:300;font-size:48px;fill:#919191;">Color</text><text x="228.804px" y="989.795px" style="font-family:'Roboto-Light', 'Roboto';font-weight:300;font-size:20px;fill:#919191;">F<tspan x="239.722px 250.288px " y="989.795px 989.795px ">av</tspan>icon  64x64 p<tspan x="376.47px " y="989.795px ">x</tspan></text><text x="1548.92px" y="989.795px" style="font-family:'Roboto-Light', 'Roboto';font-weight:300;font-size:20px;fill:#919191;">F<tspan x="1559.84px 1570.41px " y="989.795px 989.795px ">av</tspan>icon   16x16 p<tspan x="1701.45px " y="989.795px ">x</tspan></text><text x="892.904px" y="989.795px" style="font-family:'Roboto-Light', 'Roboto';font-weight:300;font-size:20px;fill:#919191;">F<tspan x="903.822px 914.389px " y="989.795px 989.795px ">av</tspan>icon   32x32 p<tspan x="1045.43px " y="989.795px ">x</tspan></text><text x="1559.98px" y="42.751px" style="font-family:'Roboto-Light', 'Roboto';font-weight:300;font-size:20px;fill:#919191;">V<tspan x="1571.88px 1582.22px 1589.43px " y="42.751px 42.751px 42.751px ">ert</tspan>ical full logo</text><g><path d="M1611.33,198.555c0,-5.537 4.495,-10.032 10.032,-10.032c5.537,0 10.032,4.495 10.032,10.032c2.768,-4.795 8.909,-6.44 13.704,-3.672c4.795,2.769 6.44,8.909 3.672,13.704c4.795,-2.768 10.935,-1.123 13.704,3.672c2.768,4.795 1.123,10.936 -3.672,13.704c5.536,0 10.032,4.495 10.032,10.032c0,5.537 -4.496,10.032 -10.032,10.032c4.795,2.769 6.44,8.909 3.672,13.704c-2.769,4.795 -8.909,6.44 -13.704,3.672c2.768,4.795 1.123,10.936 -3.672,13.704c-4.795,2.768 -10.936,1.123 -13.704,-3.672c0,5.537 -4.495,10.032 -10.032,10.032c-5.537,0 -10.032,-4.495 -10.032,-10.032c-2.769,4.795 -8.909,6.44 -13.704,3.672c-4.795,-2.768 -6.441,-8.909 -3.672,-13.704c-4.795,2.768 -10.936,1.123 -13.704,-3.672c-2.768,-4.795 -1.123,-10.935 3.672,-13.704c-5.537,0 -10.032,-4.495 -10.032,-10.032c0,-5.537 4.495,-10.032 10.032,-10.032c-4.795,-2.768 -6.44,-8.909 -3.672,-13.704c2.768,-4.795 8.909,-6.44 13.704,-3.672c-2.769,-4.795 -1.123,-10.935 3.672,-13.704c4.795,-2.768 10.935,-1.123 13.704,3.672Z" style="fill:url(#_Linear2);"/><text x="1522.05px" y="339.467px" style="font-family:'Roboto-Regular', 'Roboto';font-size:48px;fill:url(#_Linear3);">W<tspan x="1561.51px 1586.48px 1599.88px 1624.55px 1664.22px 1687.93px 1701.77px " y="339.467px 339.467px 339.467px 339.467px 339.467px 339.467px 339.467px ">ordmark</tspan></text></g><path d="M286.368,209.656c0,-11.664 9.469,-21.133 21.132,-21.133c11.663,0 21.132,9.469 21.132,21.133c5.832,-10.101 18.767,-13.567 28.868,-7.735c10.101,5.831 13.567,18.767 7.735,28.867c10.101,-5.831 23.036,-2.365 28.868,7.735c5.831,10.101 2.365,23.036 -7.735,28.868c11.663,0 21.132,9.469 21.132,21.132c0,11.664 -9.469,21.133 -21.132,21.133c10.1,5.831 13.566,18.767 7.735,28.867c-5.832,10.101 -18.767,13.567 -28.868,7.735c5.832,10.101 2.366,23.036 -7.735,28.868c-10.101,5.831 -23.036,2.366 -28.868,-7.735c0,11.663 -9.469,21.132 -21.132,21.132c-11.663,0 -21.132,-9.469 -21.132,-21.132c-5.832,10.101 -18.767,13.566 -28.868,7.735c-10.101,-5.832 -13.567,-18.767 -7.735,-28.868c-10.101,5.832 -23.036,2.366 -28.868,-7.735c-5.831,-10.1 -2.365,-23.036 7.735,-28.867c-11.663,0 -21.132,-9.469 -21.132,-21.133c0,-11.663 9.469,-21.132 21.132,-21.132c-10.1,-5.832 -13.566,-18.767 -7.735,-28.868c5.832,-10.1 18.767,-13.566 28.868,-7.735c-5.832,-10.1 -2.366,-23.036 7.735,-28.867c10.101,-5.832 23.036,-2.366 28.868,7.735Z" style="fill:url(#_Linear4);"/><path d="M1628.36,723.442c0,-0.933 0.757,-1.691 1.69,-1.691c0.933,0 1.691,0.758 1.691,1.691c0.466,-0.808 1.501,-1.086 2.309,-0.619c0.808,0.466 1.086,1.501 0.619,2.309c0.808,-0.466 1.843,-0.189 2.309,0.619c0.467,0.808 0.19,1.843 -0.618,2.31c0.933,0 1.69,0.757 1.69,1.69c0,0.933 -0.757,1.691 -1.69,1.691c0.808,0.466 1.085,1.501 0.618,2.309c-0.466,0.808 -1.501,1.085 -2.309,0.619c0.467,0.808 0.189,1.843 -0.619,2.309c-0.808,0.467 -1.843,0.19 -2.309,-0.618c0,0.933 -0.758,1.69 -1.691,1.69c-0.933,0 -1.69,-0.757 -1.69,-1.69c-0.467,0.808 -1.502,1.085 -2.31,0.618c-0.808,-0.466 -1.085,-1.501 -0.619,-2.309c-0.808,0.466 -1.842,0.189 -2.309,-0.619c-0.466,-0.808 -0.189,-1.843 0.619,-2.309c-0.933,0 -1.691,-0.758 -1.691,-1.691c0,-0.933 0.758,-1.69 1.691,-1.69c-0.808,-0.467 -1.085,-1.502 -0.619,-2.31c0.467,-0.808 1.501,-1.085 2.309,-0.619c-0.466,-0.808 -0.189,-1.843 0.619,-2.309c0.808,-0.467 1.843,-0.189 2.31,0.619Z" style="fill:url(#_Linear5);"/><path d="M970.651,717.132c0,-1.866 1.515,-3.381 3.381,-3.381c1.866,0 3.381,1.515 3.381,3.381c0.933,-1.616 3.003,-2.17 4.619,-1.237c1.616,0.933 2.171,3.002 1.238,4.619c1.616,-0.934 3.685,-0.379 4.619,1.237c0.933,1.616 0.378,3.686 -1.238,4.619c1.866,0 3.381,1.515 3.381,3.381c0,1.866 -1.515,3.381 -3.381,3.381c1.616,0.933 2.171,3.003 1.238,4.619c-0.934,1.616 -3.003,2.171 -4.619,1.238c0.933,1.616 0.378,3.685 -1.238,4.619c-1.616,0.933 -3.686,0.378 -4.619,-1.238c0,1.866 -1.515,3.381 -3.381,3.381c-1.866,0 -3.381,-1.515 -3.381,-3.381c-0.933,1.616 -3.003,2.171 -4.619,1.238c-1.616,-0.934 -2.171,-3.003 -1.237,-4.619c-1.617,0.933 -3.686,0.378 -4.619,-1.238c-0.933,-1.616 -0.379,-3.686 1.237,-4.619c-1.866,0 -3.381,-1.515 -3.381,-3.381c0,-1.866 1.515,-3.381 3.381,-3.381c-1.616,-0.933 -2.17,-3.003 -1.237,-4.619c0.933,-1.616 3.002,-2.171 4.619,-1.237c-0.934,-1.617 -0.379,-3.686 1.237,-4.619c1.616,-0.933 3.686,-0.379 4.619,1.237Z" style="fill:url(#_Linear6);"/><path d="M300.738,704.514c0,-3.733 3.03,-6.763 6.762,-6.763c3.732,0 6.762,3.03 6.762,6.763c1.867,-3.233 6.006,-4.342 9.238,-2.476c3.232,1.866 4.341,6.006 2.475,9.238c3.232,-1.866 7.372,-0.757 9.238,2.475c1.866,3.232 0.757,7.372 -2.475,9.238c3.732,0 6.762,3.03 6.762,6.762c0,3.732 -3.03,6.763 -6.762,6.763c3.232,1.866 4.341,6.005 2.475,9.237c-1.866,3.232 -6.006,4.341 -9.238,2.475c1.866,3.233 0.757,7.372 -2.475,9.238c-3.232,1.866 -7.371,0.757 -9.238,-2.475c0,3.732 -3.03,6.762 -6.762,6.762c-3.732,0 -6.762,-3.03 -6.762,-6.762c-1.867,3.232 -6.006,4.341 -9.238,2.475c-3.232,-1.866 -4.341,-6.005 -2.475,-9.238c-3.232,1.866 -7.372,0.757 -9.238,-2.475c-1.866,-3.232 -0.757,-7.371 2.475,-9.237c-3.732,0 -6.762,-3.031 -6.762,-6.763c0,-3.732 3.03,-6.762 6.762,-6.762c-3.232,-1.866 -4.341,-6.006 -2.475,-9.238c1.866,-3.232 6.006,-4.341 9.238,-2.475c-1.866,-3.232 -0.757,-7.372 2.475,-9.238c3.232,-1.866 7.371,-0.757 9.238,2.476Z" style="fill:url(#_Linear7);"/><text x="891.923px" y="42.751px" style="font-family:'Roboto-Light', 'Roboto';font-weight:300;font-size:20px;fill:#919191;">Horiz<tspan x="938.056px " y="42.751px ">o</tspan>ntal full logo</text><g><path d="M842.966,229.373c0,-5.832 4.734,-10.566 10.566,-10.566c5.832,0 10.566,4.734 10.566,10.566c2.916,-5.051 9.384,-6.783 14.434,-3.868c5.05,2.916 6.783,9.384 3.868,14.434c5.05,-2.916 11.518,-1.183 14.433,3.868c2.916,5.05 1.183,11.518 -3.867,14.433c5.832,0 10.566,4.735 10.566,10.567c0,5.831 -4.734,10.566 -10.566,10.566c5.05,2.916 6.783,9.383 3.867,14.434c-2.915,5.05 -9.383,6.783 -14.433,3.867c2.915,5.051 1.182,11.518 -3.868,14.434c-5.05,2.916 -11.518,1.183 -14.434,-3.868c0,5.832 -4.734,10.567 -10.566,10.567c-5.832,0 -10.566,-4.735 -10.566,-10.567c-2.916,5.051 -9.384,6.784 -14.434,3.868c-5.05,-2.916 -6.783,-9.383 -3.867,-14.434c-5.051,2.916 -11.518,1.183 -14.434,-3.867c-2.916,-5.051 -1.183,-11.518 3.867,-14.434c-5.831,0 -10.566,-4.735 -10.566,-10.566c0,-5.832 4.735,-10.567 10.566,-10.567c-5.05,-2.915 -6.783,-9.383 -3.867,-14.433c2.916,-5.051 9.383,-6.784 14.434,-3.868c-2.916,-5.05 -1.183,-11.518 3.867,-14.434c5.05,-2.915 11.518,-1.183 14.434,3.868Z" style="fill:url(#_Linear8);"/><text x="928.532px" y="281.995px" style="font-family:'Roboto-Regular', 'Roboto';font-size:48px;fill:url(#_Linear9);">W<tspan x="967.991px 992.966px 1006.36px 1031.03px 1070.7px 1094.41px 1108.26px " y="281.995px 281.995px 281.995px 281.995px 281.995px 281.995px 281.995px ">ordmark</tspan></text></g></g><defs><linearGradient id="_Linear2" x1="0" y1="0" x2="1" y2="0" gradientUnits="userSpaceOnUse" gradientTransform="matrix(316.143,0,0,174.737,1573.89,196.099)"><stop offset="0" style="stop-color:#ffd000;stop-opacity:1"/><stop offset="1" style="stop-color:#00d055;stop-opacity:1"/></linearGradient><linearGradient id="_Linear3" x1="0" y1="0" x2="1" y2="0" gradientUnits="userSpaceOnUse" gradientTransform="matrix(313,0,0,173,1404.05,389.967)"><stop offset="0" style="stop-color:#ffd000;stop-opacity:1"/><stop offset="1" style="stop-color:#00d055;stop-opacity:1"/></linearGradient><linearGradient id="_Linear4" x1="0" y1="0" x2="1" y2="0" gradientUnits="userSpaceOnUse" gradientTransform="matrix(200,0,0,200,207.5,288.523)"><stop offset="0" style="stop-color:#ffd000;stop-opacity:1"/><stop offset="1" style="stop-color:#00d055;stop-opacity:1"/></linearGradient><linearGradient id="_Linear5" x1="0" y1="0" x2="1" y2="0" gradientUnits="userSpaceOnUse" gradientTransform="matrix(16,0,0,16,1622.05,729.751)"><stop offset="0" style="stop-color:#ffd000;stop-opacity:1"/><stop offset="1" style="stop-color:#00d055;stop-opacity:1"/></linearGradient><linearGradient id="_Linear6" x1="0" y1="0" x2="1" y2="0" gradientUnits="userSpaceOnUse" gradientTransform="matrix(32,0,0,32,958.032,729.751)"><stop offset="0" style="stop-color:#ffd000;stop-opacity:1"/><stop offset="1" style="stop-color:#00d055;stop-opacity:1"/></linearGradient><linearGradient id="_Linear7" x1="0" y1="0" x2="1" y2="0" gradientUnits="userSpaceOnUse" gradientTransform="matrix(64,0,0,64,275.5,729.751)"><stop offset="0" style="stop-color:#ffd000;stop-opacity:1"/><stop offset="1" style="stop-color:#00d055;stop-opacity:1"/></linearGradient><linearGradient id="_Linear8" x1="0" y1="0" x2="1" y2="0" gradientUnits="userSpaceOnUse" gradientTransform="matrix(332.979,0,0,184.043,803.532,226.785)"><stop offset="0" style="stop-color:#ffd000;stop-opacity:1"/><stop offset="1" style="stop-color:#00d055;stop-opacity:1"/></linearGradient><linearGradient id="_Linear9" x1="0" y1="0" x2="1" y2="0" gradientUnits="userSpaceOnUse" gradientTransform="matrix(313,0,0,173,810.532,332.495)"><stop offset="0" style="stop-color:#ffd000;stop-opacity:1"/><stop offset="1" style="stop-color:#00d055;stop-opacity:1"/></linearGradient></defs></svg>