<?xml version="1.0" encoding="UTF-8" standalone="no"?><!DOCTYPE svg PUBLIC "-//W3C//DTD SVG 1.1//EN" "http://www.w3.org/Graphics/SVG/1.1/DTD/svg11.dtd"><svg width="100%" height="100%" viewBox="0 0 716 1021" version="1.1" xmlns="http://www.w3.org/2000/svg" xmlns:xlink="http://www.w3.org/1999/xlink" xml:space="preserve" xmlns:serif="http://www.serif.com/" style="fill-rule:evenodd;clip-rule:evenodd;stroke-linecap:round;stroke-linejoin:round;stroke-miterlimit:1.5;"><rect id="Artboard-4" serif:id="Artboard 4" x="0.492" y="0.418" width="715" height="1020" style="fill:none;"/><clipPath id="_clip1"><rect x="0.492" y="0.418" width="715" height="1020"/></clipPath><g clip-path="url(#_clip1)"><g id="dividers"><path d="M358.033,0.418c-0.184,0.635 0,410.041 0,410.041" style="fill:none;stroke:#d4d4d4;stroke-width:2.5px;stroke-dasharray:2.5,10,0,0;"/><path d="M715.492,748.082c-0.635,-0.184 -715,0 -715,0" style="fill:none;stroke:#d4d4d4;stroke-width:2.5px;stroke-dasharray:2.5,10,0,0;"/><path d="M715.492,410.459c-0.635,-0.184 -715,0 -715,0" style="fill:none;stroke:#d4d4d4;stroke-width:2.5px;stroke-dasharray:2.5,10,0,0;"/></g><text x="166.685px" y="388.267px" style="font-family:'Roboto-Light', 'Roboto';font-weight:300;font-size:20px;fill:#919191;">Icon</text><g><text x="510.063px" y="989.795px" style="font-family:'Roboto-Light', 'Roboto';font-weight:300;font-size:20px;fill:#919191;">16x16 p<tspan x="579.927px " y="989.795px ">x</tspan></text><text x="318.197px" y="989.795px" style="font-family:'Roboto-Light', 'Roboto';font-weight:300;font-size:20px;fill:#919191;">32x32 p<tspan x="388.061px " y="989.795px ">x</tspan></text><text x="137.014px" y="989.795px" style="font-family:'Roboto-Light', 'Roboto';font-weight:300;font-size:20px;fill:#919191;">64x64 p<tspan x="206.877px " y="989.795px ">x</tspan></text></g><g><path d="M548.168,848.044c0,-0.933 0.757,-1.69 1.69,-1.69c0.933,0 1.691,0.757 1.691,1.69c0.466,-0.808 1.501,-1.085 2.309,-0.618c0.808,0.466 1.086,1.501 0.619,2.309c0.808,-0.467 1.843,-0.189 2.31,0.619c0.466,0.808 0.189,1.843 -0.619,2.309c0.933,0 1.69,0.758 1.69,1.691c0,0.933 -0.757,1.69 -1.69,1.69c0.808,0.467 1.085,1.502 0.619,2.31c-0.467,0.808 -1.502,1.085 -2.31,0.619c0.467,0.808 0.189,1.842 -0.619,2.309c-0.808,0.467 -1.843,0.189 -2.309,-0.619c0,0.933 -0.758,1.691 -1.691,1.691c-0.933,0 -1.69,-0.758 -1.69,-1.691c-0.467,0.808 -1.502,1.086 -2.31,0.619c-0.808,-0.467 -1.085,-1.501 -0.618,-2.309c-0.809,0.466 -1.843,0.189 -2.31,-0.619c-0.466,-0.808 -0.189,-1.843 0.619,-2.31c-0.933,0 -1.691,-0.757 -1.691,-1.69c0,-0.933 0.758,-1.691 1.691,-1.691c-0.808,-0.466 -1.085,-1.501 -0.619,-2.309c0.467,-0.808 1.501,-1.086 2.31,-0.619c-0.467,-0.808 -0.19,-1.843 0.618,-2.309c0.808,-0.467 1.843,-0.19 2.31,0.618Z" style="fill:url(#_Linear2);"/><path d="M354.611,841.735c0,-1.866 1.515,-3.381 3.381,-3.381c1.866,0 3.381,1.515 3.381,3.381c0.933,-1.616 3.003,-2.171 4.619,-1.238c1.616,0.933 2.171,3.003 1.238,4.619c1.616,-0.933 3.685,-0.378 4.619,1.238c0.933,1.616 0.378,3.686 -1.238,4.619c1.866,0 3.381,1.515 3.381,3.381c0,1.866 -1.515,3.381 -3.381,3.381c1.616,0.933 2.171,3.003 1.238,4.619c-0.934,1.616 -3.003,2.17 -4.619,1.237c0.933,1.617 0.378,3.686 -1.238,4.619c-1.616,0.933 -3.686,0.379 -4.619,-1.237c0,1.866 -1.515,3.381 -3.381,3.381c-1.866,0 -3.381,-1.515 -3.381,-3.381c-0.933,1.616 -3.003,2.17 -4.619,1.237c-1.616,-0.933 -2.171,-3.002 -1.237,-4.619c-1.617,0.933 -3.686,0.379 -4.619,-1.237c-0.933,-1.616 -0.379,-3.686 1.237,-4.619c-1.866,0 -3.381,-1.515 -3.381,-3.381c0,-1.866 1.515,-3.381 3.381,-3.381c-1.616,-0.933 -2.17,-3.003 -1.237,-4.619c0.933,-1.616 3.002,-2.171 4.619,-1.238c-0.934,-1.616 -0.379,-3.686 1.237,-4.619c1.616,-0.933 3.686,-0.378 4.619,1.238Z" style="fill:url(#_Linear3);"/><path d="M168.096,829.116c0,-3.732 3.03,-6.762 6.762,-6.762c3.733,0 6.763,3.03 6.763,6.762c1.866,-3.232 6.005,-4.341 9.237,-2.475c3.233,1.866 4.342,6.005 2.476,9.238c3.232,-1.867 7.371,-0.757 9.237,2.475c1.866,3.232 0.757,7.371 -2.475,9.237c3.732,0 6.762,3.031 6.762,6.763c0,3.732 -3.03,6.762 -6.762,6.762c3.232,1.866 4.341,6.006 2.475,9.238c-1.866,3.232 -6.005,4.341 -9.237,2.475c1.866,3.232 0.757,7.372 -2.476,9.238c-3.232,1.866 -7.371,0.757 -9.237,-2.476c0,3.733 -3.03,6.763 -6.763,6.763c-3.732,0 -6.762,-3.03 -6.762,-6.763c-1.866,3.233 -6.005,4.342 -9.238,2.476c-3.232,-1.866 -4.341,-6.006 -2.475,-9.238c-3.232,1.866 -7.371,0.757 -9.237,-2.475c-1.867,-3.232 -0.757,-7.372 2.475,-9.238c-3.733,0 -6.763,-3.03 -6.763,-6.762c0,-3.732 3.03,-6.763 6.763,-6.763c-3.232,-1.866 -4.342,-6.005 -2.475,-9.237c1.866,-3.232 6.005,-4.342 9.237,-2.475c-1.866,-3.233 -0.757,-7.372 2.475,-9.238c3.233,-1.866 7.372,-0.757 9.238,2.475Z" style="fill:url(#_Linear4);"/></g><g><path d="M531.138,103.246c0,-5.537 4.495,-10.032 10.032,-10.032c5.537,0 10.032,4.495 10.032,10.032c2.768,-4.795 8.909,-6.44 13.704,-3.672c4.795,2.769 6.44,8.909 3.672,13.704c4.795,-2.768 10.935,-1.123 13.704,3.672c2.768,4.795 1.123,10.936 -3.672,13.704c5.537,0 10.032,4.495 10.032,10.032c0,5.537 -4.495,10.032 -10.032,10.032c4.795,2.769 6.44,8.909 3.672,13.704c-2.769,4.795 -8.909,6.44 -13.704,3.672c2.768,4.795 1.123,10.936 -3.672,13.704c-4.795,2.768 -10.936,1.123 -13.704,-3.672c0,5.537 -4.495,10.032 -10.032,10.032c-5.537,0 -10.032,-4.495 -10.032,-10.032c-2.769,4.795 -8.909,6.44 -13.704,3.672c-4.795,-2.768 -6.44,-8.909 -3.672,-13.704c-4.795,2.768 -10.936,1.123 -13.704,-3.672c-2.768,-4.795 -1.123,-10.935 3.672,-13.704c-5.537,0 -10.032,-4.495 -10.032,-10.032c0,-5.537 4.495,-10.032 10.032,-10.032c-4.795,-2.768 -6.44,-8.909 -3.672,-13.704c2.768,-4.795 8.909,-6.44 13.704,-3.672c-2.768,-4.795 -1.123,-10.935 3.672,-13.704c4.795,-2.768 10.935,-1.123 13.704,3.672Z" style="fill:url(#_Linear5);"/><text x="441.858px" y="244.158px" style="font-family:'Roboto-Regular', 'Roboto';font-size:48px;fill:url(#_Linear6);">W<tspan x="481.318px 506.293px 519.69px 544.36px 584.03px 607.74px 621.582px " y="244.158px 244.158px 244.158px 244.158px 244.158px 244.158px 244.158px ">ordmark</tspan></text></g><path d="M159.092,92.183c0,-11.663 9.469,-21.132 21.133,-21.132c11.663,0 21.132,9.469 21.132,21.132c5.832,-10.101 18.767,-13.567 28.868,-7.735c10.1,5.832 13.566,18.767 7.735,28.868c10.1,-5.832 23.035,-2.366 28.867,7.735c5.832,10.1 2.366,23.035 -7.735,28.867c11.663,0 21.133,9.469 21.133,21.133c0,11.663 -9.47,21.132 -21.133,21.132c10.101,5.832 13.567,18.767 7.735,28.868c-5.832,10.1 -18.767,13.566 -28.867,7.735c5.831,10.1 2.365,23.035 -7.735,28.867c-10.101,5.832 -23.036,2.366 -28.868,-7.735c0,11.663 -9.469,21.133 -21.132,21.133c-11.664,0 -21.133,-9.47 -21.133,-21.133c-5.832,10.101 -18.767,13.567 -28.867,7.735c-10.101,-5.832 -13.567,-18.767 -7.735,-28.867c-10.101,5.831 -23.036,2.365 -28.868,-7.735c-5.832,-10.101 -2.366,-23.036 7.735,-28.868c-11.663,0 -21.132,-9.469 -21.132,-21.132c0,-11.664 9.469,-21.133 21.132,-21.133c-10.101,-5.832 -13.567,-18.767 -7.735,-28.867c5.832,-10.101 18.767,-13.567 28.868,-7.735c-5.832,-10.101 -2.366,-23.036 7.735,-28.868c10.1,-5.832 23.035,-2.366 28.867,7.735Z" style="fill:url(#_Linear7);"/><g><path d="M229.434,526.13c0,-5.831 4.734,-10.566 10.566,-10.566c5.832,0 10.566,4.735 10.566,10.566c2.916,-5.05 9.384,-6.783 14.434,-3.867c5.05,2.916 6.783,9.383 3.868,14.434c5.05,-2.916 11.517,-1.183 14.433,3.867c2.916,5.05 1.183,11.518 -3.867,14.434c5.831,0 10.566,4.734 10.566,10.566c0,5.832 -4.735,10.566 -10.566,10.566c5.05,2.916 6.783,9.384 3.867,14.434c-2.916,5.05 -9.383,6.783 -14.433,3.868c2.915,5.05 1.182,11.518 -3.868,14.433c-5.05,2.916 -11.518,1.183 -14.434,-3.867c0,5.832 -4.734,10.566 -10.566,10.566c-5.832,0 -10.566,-4.734 -10.566,-10.566c-2.916,5.05 -9.384,6.783 -14.434,3.867c-5.05,-2.915 -6.783,-9.383 -3.868,-14.433c-5.05,2.915 -11.517,1.182 -14.433,-3.868c-2.916,-5.05 -1.183,-11.518 3.867,-14.434c-5.831,0 -10.566,-4.734 -10.566,-10.566c0,-5.832 4.735,-10.566 10.566,-10.566c-5.05,-2.916 -6.783,-9.384 -3.867,-14.434c2.916,-5.05 9.383,-6.783 14.433,-3.867c-2.915,-5.051 -1.182,-11.518 3.868,-14.434c5.05,-2.916 11.518,-1.183 14.434,3.867Z" style="fill:url(#_Linear8);"/><text x="307px" y="578.753px" style="font-family:'Roboto-Regular', 'Roboto';font-size:48px;fill:url(#_Linear9);">W<tspan x="346.459px 371.434px 384.831px 409.502px 449.172px 472.881px 486.723px " y="578.753px 578.753px 578.753px 578.753px 578.753px 578.753px 578.753px ">ordmark</tspan></text></g><text x="313.021px" y="724.26px" style="font-family:'Roboto-Light', 'Roboto';font-weight:300;font-size:20px;fill:#919191;">Horiz<tspan x="359.154px " y="724.26px ">o</tspan>ntal</text><text x="516.929px" y="388.267px" style="font-family:'Roboto-Light', 'Roboto';font-weight:300;font-size:20px;fill:#919191;">V<tspan x="528.833px 539.165px 546.382px " y="388.267px 388.267px 388.267px ">ert</tspan>ical</text></g><defs><linearGradient id="_Linear2" x1="0" y1="0" x2="1" y2="0" gradientUnits="userSpaceOnUse" gradientTransform="matrix(16,0,0,16,541.858,854.354)"><stop offset="0" style="stop-color:#ffd000;stop-opacity:1"/><stop offset="1" style="stop-color:#00d055;stop-opacity:1"/></linearGradient><linearGradient id="_Linear3" x1="0" y1="0" x2="1" y2="0" gradientUnits="userSpaceOnUse" gradientTransform="matrix(32,0,0,32,341.992,854.354)"><stop offset="0" style="stop-color:#ffd000;stop-opacity:1"/><stop offset="1" style="stop-color:#00d055;stop-opacity:1"/></linearGradient><linearGradient id="_Linear4" x1="0" y1="0" x2="1" y2="0" gradientUnits="userSpaceOnUse" gradientTransform="matrix(64,0,0,64,142.858,854.354)"><stop offset="0" style="stop-color:#ffd000;stop-opacity:1"/><stop offset="1" style="stop-color:#00d055;stop-opacity:1"/></linearGradient><linearGradient id="_Linear5" x1="0" y1="0" x2="1" y2="0" gradientUnits="userSpaceOnUse" gradientTransform="matrix(316.143,0,0,174.737,493.698,100.79)"><stop offset="0" style="stop-color:#ffd000;stop-opacity:1"/><stop offset="1" style="stop-color:#00d055;stop-opacity:1"/></linearGradient><linearGradient id="_Linear6" x1="0" y1="0" x2="1" y2="0" gradientUnits="userSpaceOnUse" gradientTransform="matrix(313,0,0,173,323.858,294.658)"><stop offset="0" style="stop-color:#ffd000;stop-opacity:1"/><stop offset="1" style="stop-color:#00d055;stop-opacity:1"/></linearGradient><linearGradient id="_Linear7" x1="0" y1="0" x2="1" y2="0" gradientUnits="userSpaceOnUse" gradientTransform="matrix(200,0,0,200,80.2246,171.051)"><stop offset="0" style="stop-color:#ffd000;stop-opacity:1"/><stop offset="1" style="stop-color:#00d055;stop-opacity:1"/></linearGradient><linearGradient id="_Linear8" x1="0" y1="0" x2="1" y2="0" gradientUnits="userSpaceOnUse" gradientTransform="matrix(332.979,0,0,184.043,190,523.543)"><stop offset="0" style="stop-color:#ffd000;stop-opacity:1"/><stop offset="1" style="stop-color:#00d055;stop-opacity:1"/></linearGradient><linearGradient id="_Linear9" x1="0" y1="0" x2="1" y2="0" gradientUnits="userSpaceOnUse" gradientTransform="matrix(313,0,0,173,189,629.253)"><stop offset="0" style="stop-color:#ffd000;stop-opacity:1"/><stop offset="1" style="stop-color:#00d055;stop-opacity:1"/></linearGradient></defs></svg>