<?xml version="1.0" encoding="UTF-8" standalone="no"?><!DOCTYPE svg PUBLIC "-//W3C//DTD SVG 1.1//EN" "http://www.w3.org/Graphics/SVG/1.1/DTD/svg11.dtd"><svg width="100%" height="100%" viewBox="0 0 716 1021" version="1.1" xmlns="http://www.w3.org/2000/svg" xmlns:xlink="http://www.w3.org/1999/xlink" xml:space="preserve" xmlns:serif="http://www.serif.com/" style="fill-rule:evenodd;clip-rule:evenodd;stroke-linecap:round;stroke-linejoin:round;stroke-miterlimit:1.5;"><rect id="Artboard-5" serif:id="Artboard 5" x="0.492" y="0.224" width="715" height="1020" style="fill:none;"/><clipPath id="_clip1"><rect x="0.492" y="0.224" width="715" height="1020"/></clipPath><g clip-path="url(#_clip1)"><rect x="0.492" y="693.317" width="715" height="326.906"/><g><path d="M182.013,436.268c0,-5.172 4.199,-9.371 9.372,-9.371c5.172,0 9.372,4.199 9.372,9.371c2.586,-4.479 8.322,-6.016 12.802,-3.43c4.479,2.586 6.016,8.323 3.43,12.802c4.48,-2.586 10.216,-1.049 12.802,3.431c2.586,4.479 1.049,10.215 -3.43,12.802c5.172,0 9.372,4.199 9.372,9.371c0,5.173 -4.2,9.372 -9.372,9.372c4.479,2.586 6.016,8.323 3.43,12.802c-2.586,4.48 -8.322,6.017 -12.802,3.431c2.586,4.479 1.049,10.216 -3.43,12.802c-4.48,2.586 -10.216,1.049 -12.802,-3.431c0,5.173 -4.2,9.372 -9.372,9.372c-5.173,0 -9.372,-4.199 -9.372,-9.372c-2.586,4.48 -8.323,6.017 -12.802,3.431c-4.48,-2.586 -6.017,-8.323 -3.43,-12.802c-4.48,2.586 -10.216,1.049 -12.803,-3.431c-2.586,-4.479 -1.049,-10.216 3.431,-12.802c-5.173,0 -9.372,-4.199 -9.372,-9.372c0,-5.172 4.199,-9.371 9.372,-9.371c-4.48,-2.587 -6.017,-8.323 -3.431,-12.802c2.587,-4.48 8.323,-6.017 12.803,-3.431c-2.587,-4.479 -1.05,-10.216 3.43,-12.802c4.479,-2.586 10.216,-1.049 12.802,3.43Z"/><text x="89.359px" y="570.276px" style="font-family:'Roboto-Regular', 'Roboto';font-size:48px;">W<tspan x="128.818px 153.793px 167.19px 191.861px 231.531px 255.24px 269.082px " y="570.276px 570.276px 570.276px 570.276px 570.276px 570.276px 570.276px ">ordmark</tspan></text></g><text x="465.301px" y="42.557px" style="font-family:'Roboto-Light', 'Roboto';font-weight:300;font-size:20px;fill:#919191;">Icon gr<tspan x="525.614px 535.819px " y="42.557px 42.557px ">ey</tspan>scale</text><text x="452.086px" y="667.98px" style="font-family:'Roboto-Light', 'Roboto';font-weight:300;font-size:20px;fill:#919191;">Gr<tspan x="472.301px 482.506px " y="667.98px 667.98px ">ey</tspan>scale full (v/h)</text><text x="225.99px" y="989.601px" style="font-family:'Roboto-Light', 'Roboto';font-weight:300;font-size:20px;fill:#919191;">White full (v<tspan x="328.305px 338.637px 345.853px " y="989.601px 989.601px 989.601px ">ert</tspan>ical/horiz<tspan x="433.158px " y="989.601px ">o</tspan>ntal))</text><text x="133.222px" y="667.875px" style="font-family:'Roboto-Light', 'Roboto';font-weight:300;font-size:20px;fill:#919191;">Black full (v/h)</text><g><path d="M221.426,794.133c0,-5.832 4.734,-10.566 10.566,-10.566c5.832,0 10.566,4.734 10.566,10.566c2.916,-5.05 9.384,-6.783 14.434,-3.868c5.051,2.916 6.784,9.384 3.868,14.434c5.05,-2.916 11.518,-1.183 14.433,3.868c2.916,5.05 1.183,11.518 -3.867,14.433c5.832,0 10.566,4.735 10.566,10.567c0,5.831 -4.734,10.566 -10.566,10.566c5.05,2.916 6.783,9.383 3.867,14.434c-2.915,5.05 -9.383,6.783 -14.433,3.867c2.916,5.051 1.183,11.518 -3.868,14.434c-5.05,2.916 -11.518,1.183 -14.434,-3.868c0,5.832 -4.734,10.567 -10.566,10.567c-5.832,0 -10.566,-4.735 -10.566,-10.567c-2.916,5.051 -9.383,6.784 -14.434,3.868c-5.05,-2.916 -6.783,-9.383 -3.867,-14.434c-5.051,2.916 -11.518,1.183 -14.434,-3.867c-2.916,-5.051 -1.183,-11.518 3.867,-14.434c-5.831,0 -10.566,-4.735 -10.566,-10.566c0,-5.832 4.735,-10.567 10.566,-10.567c-5.05,-2.915 -6.783,-9.383 -3.867,-14.433c2.916,-5.051 9.383,-6.784 14.434,-3.868c-2.916,-5.05 -1.183,-11.518 3.867,-14.434c5.051,-2.915 11.518,-1.182 14.434,3.868Z" style="fill:#fff;"/><text x="306.992px" y="846.755px" style="font-family:'Roboto-Regular', 'Roboto';font-size:48px;fill:#fff;">W<tspan x="346.452px 371.427px 384.823px 409.494px 449.164px 472.873px 486.716px " y="846.755px 846.755px 846.755px 846.755px 846.755px 846.755px 846.755px ">ordmark</tspan></text></g><g><path d="M525.64,436.268c0,-5.172 4.2,-9.371 9.372,-9.371c5.173,0 9.372,4.199 9.372,9.371c2.586,-4.479 8.323,-6.016 12.802,-3.43c4.48,2.586 6.017,8.323 3.43,12.802c4.48,-2.586 10.216,-1.049 12.803,3.431c2.586,4.479 1.049,10.215 -3.431,12.802c5.173,0 9.372,4.199 9.372,9.371c0,5.173 -4.199,9.372 -9.372,9.372c4.48,2.586 6.017,8.323 3.431,12.802c-2.587,4.48 -8.323,6.017 -12.803,3.431c2.587,4.479 1.05,10.216 -3.43,12.802c-4.479,2.586 -10.216,1.049 -12.802,-3.431c0,5.173 -4.199,9.372 -9.372,9.372c-5.172,0 -9.372,-4.199 -9.372,-9.372c-2.586,4.48 -8.322,6.017 -12.802,3.431c-4.479,-2.586 -6.016,-8.323 -3.43,-12.802c-4.479,2.586 -10.216,1.049 -12.802,-3.431c-2.586,-4.479 -1.049,-10.216 3.43,-12.802c-5.172,0 -9.372,-4.199 -9.372,-9.372c0,-5.172 4.2,-9.371 9.372,-9.371c-4.479,-2.587 -6.016,-8.323 -3.43,-12.802c2.586,-4.48 8.323,-6.017 12.802,-3.431c-2.586,-4.479 -1.049,-10.216 3.43,-12.802c4.48,-2.586 10.216,-1.049 12.802,3.43Z" style="fill:url(#_Linear2);"/><text x="432.986px" y="570.276px" style="font-family:'Roboto-Regular', 'Roboto';font-size:48px;fill:url(#_Linear3);">W<tspan x="472.446px 497.421px 510.818px 535.488px 575.158px 598.868px 612.71px " y="570.276px 570.276px 570.276px 570.276px 570.276px 570.276px 570.276px ">ordmark</tspan></text></g><text x="140.6px" y="42.557px" style="font-family:'Roboto-Light', 'Roboto';font-weight:300;font-size:20px;fill:#919191;">Icon black</text><path d="M715.492,371.485c-0.635,-0.183 -715,0 -715,0" style="fill:none;stroke:#d4d4d4;stroke-width:2.5px;stroke-dasharray:2.5,10,0,0;"/><path d="M512.523,129.132c0,-11.663 9.469,-21.132 21.133,-21.132c11.663,0 21.132,9.469 21.132,21.132c5.832,-10.1 18.767,-13.566 28.868,-7.735c10.1,5.832 13.566,18.767 7.735,28.868c10.1,-5.832 23.035,-2.366 28.867,7.735c5.832,10.101 2.366,23.036 -7.735,28.868c11.663,0 21.133,9.469 21.133,21.132c0,11.663 -9.47,21.132 -21.133,21.132c10.101,5.832 13.567,18.767 7.735,28.868c-5.832,10.101 -18.767,13.567 -28.867,7.735c5.831,10.101 2.365,23.036 -7.735,28.868c-10.101,5.831 -23.036,2.365 -28.868,-7.735c0,11.663 -9.469,21.132 -21.132,21.132c-11.664,0 -21.133,-9.469 -21.133,-21.132c-5.832,10.1 -18.767,13.566 -28.867,7.735c-10.101,-5.832 -13.567,-18.767 -7.735,-28.868c-10.101,5.832 -23.036,2.366 -28.868,-7.735c-5.832,-10.101 -2.366,-23.036 7.735,-28.868c-11.663,0 -21.132,-9.469 -21.132,-21.132c0,-11.663 9.469,-21.132 21.132,-21.132c-10.101,-5.832 -13.567,-18.767 -7.735,-28.868c5.832,-10.101 18.767,-13.567 28.868,-7.735c-5.832,-10.101 -2.366,-23.036 7.735,-28.868c10.1,-5.831 23.035,-2.365 28.867,7.735Z" style="fill:url(#_Linear4);"/><path d="M169.36,129.132c0,-11.663 9.469,-21.132 21.132,-21.132c11.663,0 21.133,9.469 21.133,21.132c5.831,-10.1 18.766,-13.566 28.867,-7.735c10.101,5.832 13.567,18.767 7.735,28.868c10.101,-5.832 23.036,-2.366 28.868,7.735c5.831,10.101 2.365,23.036 -7.735,28.868c11.663,0 21.132,9.469 21.132,21.132c0,11.663 -9.469,21.132 -21.132,21.132c10.1,5.832 13.566,18.767 7.735,28.868c-5.832,10.101 -18.767,13.567 -28.868,7.735c5.832,10.101 2.366,23.036 -7.735,28.868c-10.101,5.831 -23.036,2.365 -28.867,-7.735c0,11.663 -9.47,21.132 -21.133,21.132c-11.663,0 -21.132,-9.469 -21.132,-21.132c-5.832,10.1 -18.767,13.566 -28.868,7.735c-10.101,-5.832 -13.567,-18.767 -7.735,-28.868c-10.101,5.832 -23.036,2.366 -28.867,-7.735c-5.832,-10.101 -2.366,-23.036 7.735,-28.868c-11.664,0 -21.133,-9.469 -21.133,-21.132c0,-11.663 9.469,-21.132 21.133,-21.132c-10.101,-5.832 -13.567,-18.767 -7.735,-28.868c5.831,-10.101 18.766,-13.567 28.867,-7.735c-5.832,-10.101 -2.366,-23.036 7.735,-28.868c10.101,-5.831 23.036,-2.365 28.868,7.735Z"/><path d="M358.033,0.224c-0.184,0.634 0,692.309 0,692.309" style="fill:none;stroke:#d4d4d4;stroke-width:2.5px;stroke-dasharray:2.5,10,0,0;"/></g><defs><linearGradient id="_Linear2" x1="0" y1="0" x2="1" y2="0" gradientUnits="userSpaceOnUse" gradientTransform="matrix(218.526,0,0,218.526,425.496,468.271)"><stop offset="0" style="stop-color:#fff;stop-opacity:1"/><stop offset="1" style="stop-color:#000;stop-opacity:1"/></linearGradient><linearGradient id="_Linear3" x1="0" y1="0" x2="1" y2="0" gradientUnits="userSpaceOnUse" gradientTransform="matrix(233.92,0,0,233.92,416.199,463.621)"><stop offset="0" style="stop-color:#fff;stop-opacity:1"/><stop offset="1" style="stop-color:#000;stop-opacity:1"/></linearGradient><linearGradient id="_Linear4" x1="0" y1="0" x2="1" y2="0" gradientUnits="userSpaceOnUse" gradientTransform="matrix(348,4,-4,348,356.656,205.561)"><stop offset="0" style="stop-color:#fff;stop-opacity:1"/><stop offset="1" style="stop-color:#000;stop-opacity:1"/></linearGradient></defs></svg>